<svg width="64" height="64" viewBox="0 0 64 64" fill="none" xmlns="http://www.w3.org/2000/svg">
<g clip-path="url(#clip0)">
<path d="M36.3707 31.808H33.8267C33.9867 31.12 34.4027 30.496 35.2507 30.496C35.9067 30.496 36.3707 31.104 36.3707 31.808ZM64.0027 32C64.0027 49.672 49.6747 64 32.0027 64C14.3307 64 0.00266266 49.672 0.00266266 32C0.00266266 14.328 14.3307 0 32.0027 0C49.6747 0 64.0027 14.328 64.0027 32ZM16.5787 26.08C16.5787 26.8747 17.224 27.52 18.0187 27.52C18.8134 27.52 19.4587 26.8747 19.4587 26.08C19.4587 25.2853 18.8134 24.64 18.0187 24.64C17.224 24.64 16.5787 25.2853 16.5787 26.08ZM20.6267 35.2H19.5067V28.464H12.9307V28.032C12.9307 27.184 13.7787 27.168 14.2107 27.168C14.7067 27.168 14.9307 27.216 14.9307 27.216V24.88C14.9307 24.88 14.4827 24.816 13.8747 24.816C12.4987 24.816 9.95466 25.2 9.95466 28.112V28.48H8.75466V30.64H9.95466V35.2H8.83466V37.36H14.2427V35.2H12.9307V30.64H16.5307V35.2H15.4107V37.36H20.6267V35.2ZM29.7307 30.624H30.7227V28.464H26.0027V30.624H26.8027L25.7787 33.824C25.5867 34.352 25.5387 34.992 25.5387 34.992H25.4747C25.4747 34.992 25.4267 34.352 25.2347 33.824L24.2107 30.624H25.0107V28.464H20.2907V30.624H21.2827L23.7467 37.344H27.2667L29.7307 30.624ZM39.4587 32.544C39.4587 30.08 37.9707 28.256 35.3307 28.256C32.4667 28.256 30.7067 30.288 30.7067 32.896C30.7067 35.264 32.4187 37.552 35.5867 37.552C37.9867 37.552 39.4107 36.304 39.4107 36.304L38.3227 34.24C38.3227 34.24 37.1387 35.088 35.8267 35.088C34.8827 35.088 33.9867 34.592 33.7627 33.456H39.3947C39.3787 33.44 39.4587 32.832 39.4587 32.544V32.544ZM47.3947 28.352C47.3947 28.352 47.2187 28.32 47.0427 28.32C45.6827 28.304 44.5627 29.296 44.1947 30.512H44.1627C44.1627 30.512 44.1947 30.336 44.1947 30.064V29.6C44.1947 28.784 43.7467 28.464 42.9307 28.464H40.1307V30.624H40.9627C41.2027 30.624 41.3467 30.768 41.3467 31.008V35.2H40.1467V37.36H45.5387V35.2H44.3387V33.904C44.3387 32.288 45.1387 31.232 46.7867 31.232C47.1547 31.232 47.3947 31.28 47.3947 31.28V28.352ZM55.2827 31.28V28.352C55.2827 28.352 55.1067 28.32 54.9307 28.32C53.5867 28.304 52.4667 29.296 52.0827 30.512H52.0507C52.0507 30.512 52.0827 30.336 52.0827 30.064V29.6C52.0827 28.784 51.6347 28.464 50.8187 28.464H48.0187V30.624H48.8507C49.0907 30.624 49.2347 30.768 49.2347 31.008V35.2H48.0347V37.36H53.4267V35.2H52.2267V33.904C52.2267 32.288 53.0267 31.232 54.6747 31.232C55.0427 31.232 55.2827 31.28 55.2827 31.28Z" fill="#808080"/>
</g>
<defs>
<clipPath id="clip0">
<rect width="64" height="64" fill="white"/>
</clipPath>
</defs>
</svg>
